<?xml version="1.0" encoding="UTF-8" standalone="no"?>
<!-- Created with Inkscape (http://www.inkscape.org/) -->

<svg
   xmlns:dc="http://purl.org/dc/elements/1.1/"
   xmlns:cc="http://creativecommons.org/ns#"
   xmlns:rdf="http://www.w3.org/1999/02/22-rdf-syntax-ns#"
   xmlns:svg="http://www.w3.org/2000/svg"
   xmlns="http://www.w3.org/2000/svg"
   xmlns:sodipodi="http://sodipodi.sourceforge.net/DTD/sodipodi-0.dtd"
   xmlns:inkscape="http://www.inkscape.org/namespaces/inkscape"
   id="svg10806"
   version="1.1"
   inkscape:version="0.48.5 r10040"
   width="608.35046"
   height="503.93015"
   xml:space="preserve"
   sodipodi:docname="krong-iteration.svg"><metadata
     id="metadata10812"><rdf:RDF><cc:Work
         rdf:about=""><dc:format>image/svg+xml</dc:format><dc:type
           rdf:resource="http://purl.org/dc/dcmitype/StillImage" /><dc:title></dc:title></cc:Work></rdf:RDF></metadata><defs
     id="defs10810"><clipPath
       clipPathUnits="userSpaceOnUse"
       id="clipPath11012"><path
         d="m 728.332,460 4341.67,0 0,3415.83 -4341.67,0 0,-3415.83 z"
         id="path11014"
         inkscape:connector-curvature="0" /></clipPath><clipPath
       clipPathUnits="userSpaceOnUse"
       id="clipPath11150"><path
         d="m 2355.83,3425 2665,0 0,400.832 -2665,0 0,-400.832 z"
         id="path11152"
         inkscape:connector-curvature="0" /></clipPath><clipPath
       clipPathUnits="userSpaceOnUse"
       id="clipPath11168"><path
         d="m 2355.83,3425 2665,0 0,400.832 -2665,0 0,-400.832 z"
         id="path11170"
         inkscape:connector-curvature="0" /></clipPath><clipPath
       clipPathUnits="userSpaceOnUse"
       id="clipPath11186"><path
         d="m 2355.83,3425 2665,0 0,400.832 -2665,0 0,-400.832 z"
         id="path11188"
         inkscape:connector-curvature="0" /></clipPath></defs><sodipodi:namedview
     pagecolor="#ffffff"
     bordercolor="#666666"
     borderopacity="1"
     objecttolerance="10"
     gridtolerance="10"
     guidetolerance="10"
     inkscape:pageopacity="0"
     inkscape:pageshadow="2"
     inkscape:window-width="1369"
     inkscape:window-height="768"
     id="namedview10808"
     showgrid="false"
     inkscape:zoom="0.84014474"
     inkscape:cx="209.7792"
     inkscape:cy="247.82163"
     inkscape:window-x="218"
     inkscape:window-y="22"
     inkscape:window-maximized="0"
     inkscape:current-layer="g10814"
     fit-margin-top="0"
     fit-margin-left="0"
     fit-margin-right="0"
     fit-margin-bottom="0" /><g
     id="g10814"
     inkscape:groupmode="layer"
     inkscape:label="ink_ext_XXXXXX"
     transform="matrix(1.25,0,0,-1.25,-25.920811,512.33166)"><path
       inkscape:connector-curvature="0"
       id="path10820"
       style="fill:#ffffff;fill-opacity:1;fill-rule:evenodd;stroke:none"
       d="m 72.8332,46.0832 434.084,0 0,341.5 -434.084,0 0,-341.5 z" /><path
       inkscape:connector-curvature="0"
       id="path10822"
       style="fill:none;stroke:#ffffff;stroke-width:1;stroke-linecap:butt;stroke-linejoin:round;stroke-miterlimit:10;stroke-opacity:1;stroke-dasharray:none"
       d="m 72.8332,46.0832 0,341.4998 434.0838,0 0,-341.4998 -434.0838,0" /><path
       inkscape:connector-curvature="0"
       id="path10824"
       style="fill:none;stroke:#4d4d4d;stroke-width:0.66666698;stroke-linecap:butt;stroke-linejoin:round;stroke-miterlimit:10;stroke-opacity:1;stroke-dasharray:0.5, 4;stroke-dashoffset:0"
       d="m 72.8332,46.0832 434.0838,0" /><path
       inkscape:connector-curvature="0"
       id="path10826"
       style="fill:none;stroke:#4d4d4d;stroke-width:0.66666698;stroke-linecap:butt;stroke-linejoin:round;stroke-miterlimit:10;stroke-opacity:1;stroke-dasharray:0.5, 4;stroke-dashoffset:0"
       d="m 506.917,46.0832 0,0" /><path
       inkscape:connector-curvature="0"
       id="path10828"
       style="fill:none;stroke:#4d4d4d;stroke-width:0.95999998;stroke-linecap:butt;stroke-linejoin:round;stroke-miterlimit:10;stroke-opacity:1;stroke-dasharray:3.84, 3.84;stroke-dashoffset:0"
       d="m 72.8332,80.25 434.0838,0" /><path
       inkscape:connector-curvature="0"
       id="path10830"
       style="fill:none;stroke:#4d4d4d;stroke-width:0.66666698;stroke-linecap:butt;stroke-linejoin:round;stroke-miterlimit:10;stroke-opacity:1;stroke-dasharray:0.5, 4;stroke-dashoffset:0"
       d="m 506.917,80.25 0,0" /><path
       inkscape:connector-curvature="0"
       id="path10832"
       style="fill:none;stroke:#4d4d4d;stroke-width:0.95999998;stroke-linecap:butt;stroke-linejoin:round;stroke-miterlimit:10;stroke-opacity:1;stroke-dasharray:3.84, 3.84;stroke-dashoffset:0"
       d="m 72.8332,114.417 434.0838,0" /><path
       inkscape:connector-curvature="0"
       id="path10834"
       style="fill:none;stroke:#4d4d4d;stroke-width:0.66666698;stroke-linecap:butt;stroke-linejoin:round;stroke-miterlimit:10;stroke-opacity:1;stroke-dasharray:0.5, 4;stroke-dashoffset:0"
       d="m 506.917,114.417 0,0" /><path
       inkscape:connector-curvature="0"
       id="path10836"
       style="fill:none;stroke:#4d4d4d;stroke-width:0.95999998;stroke-linecap:butt;stroke-linejoin:round;stroke-miterlimit:10;stroke-opacity:1;stroke-dasharray:3.84, 3.84;stroke-dashoffset:0"
       d="m 72.8332,148.583 434.0838,0" /><path
       inkscape:connector-curvature="0"
       id="path10838"
       style="fill:none;stroke:#4d4d4d;stroke-width:0.66666698;stroke-linecap:butt;stroke-linejoin:round;stroke-miterlimit:10;stroke-opacity:1;stroke-dasharray:0.5, 4;stroke-dashoffset:0"
       d="m 506.917,148.583 0,0" /><path
       inkscape:connector-curvature="0"
       id="path10840"
       style="fill:none;stroke:#4d4d4d;stroke-width:0.95999998;stroke-linecap:butt;stroke-linejoin:round;stroke-miterlimit:10;stroke-opacity:1;stroke-dasharray:3.84, 3.84;stroke-dashoffset:0"
       d="m 72.8332,182.75 434.0838,0" /><path
       inkscape:connector-curvature="0"
       id="path10842"
       style="fill:none;stroke:#4d4d4d;stroke-width:0.66666698;stroke-linecap:butt;stroke-linejoin:round;stroke-miterlimit:10;stroke-opacity:1;stroke-dasharray:0.5, 4;stroke-dashoffset:0"
       d="m 506.917,182.75 0,0" /><path
       inkscape:connector-curvature="0"
       id="path10844"
       style="fill:none;stroke:#4d4d4d;stroke-width:0.95999998;stroke-linecap:butt;stroke-linejoin:round;stroke-miterlimit:10;stroke-opacity:1;stroke-dasharray:3.84, 3.84;stroke-dashoffset:0"
       d="m 72.8332,216.833 434.0838,0" /><path
       inkscape:connector-curvature="0"
       id="path10846"
       style="fill:none;stroke:#4d4d4d;stroke-width:0.66666698;stroke-linecap:butt;stroke-linejoin:round;stroke-miterlimit:10;stroke-opacity:1;stroke-dasharray:0.5, 4;stroke-dashoffset:0"
       d="m 506.917,216.833 0,0" /><path
       inkscape:connector-curvature="0"
       id="path10848"
       style="fill:none;stroke:#4d4d4d;stroke-width:0.95999998;stroke-linecap:butt;stroke-linejoin:round;stroke-miterlimit:10;stroke-opacity:1;stroke-dasharray:3.84, 3.84;stroke-dashoffset:0"
       d="m 72.8332,251 434.0838,0" /><path
       inkscape:connector-curvature="0"
       id="path10850"
       style="fill:none;stroke:#4d4d4d;stroke-width:0.66666698;stroke-linecap:butt;stroke-linejoin:round;stroke-miterlimit:10;stroke-opacity:1;stroke-dasharray:0.5, 4;stroke-dashoffset:0"
       d="m 506.917,251 0,0" /><path
       inkscape:connector-curvature="0"
       id="path10852"
       style="fill:none;stroke:#4d4d4d;stroke-width:0.95999998;stroke-linecap:butt;stroke-linejoin:round;stroke-miterlimit:10;stroke-opacity:1;stroke-dasharray:3.84, 3.84;stroke-dashoffset:0"
       d="m 72.8332,285.167 434.0838,0" /><path
       inkscape:connector-curvature="0"
       id="path10854"
       style="fill:none;stroke:#4d4d4d;stroke-width:0.66666698;stroke-linecap:butt;stroke-linejoin:round;stroke-miterlimit:10;stroke-opacity:1;stroke-dasharray:0.5, 4;stroke-dashoffset:0"
       d="m 506.917,285.167 0,0" /><path
       inkscape:connector-curvature="0"
       id="path10856"
       style="fill:none;stroke:#4d4d4d;stroke-width:0.95999998;stroke-linecap:butt;stroke-linejoin:round;stroke-miterlimit:10;stroke-opacity:1;stroke-dasharray:3.84, 3.84;stroke-dashoffset:0"
       d="m 72.8332,319.333 434.0838,0" /><path
       inkscape:connector-curvature="0"
       id="path10858"
       style="fill:none;stroke:#4d4d4d;stroke-width:0.66666698;stroke-linecap:butt;stroke-linejoin:round;stroke-miterlimit:10;stroke-opacity:1;stroke-dasharray:0.5, 4;stroke-dashoffset:0"
       d="m 506.917,319.333 0,0" /><path
       inkscape:connector-curvature="0"
       id="path10860"
       style="fill:none;stroke:#4d4d4d;stroke-width:0.95999998;stroke-linecap:butt;stroke-linejoin:round;stroke-miterlimit:10;stroke-opacity:1;stroke-dasharray:3.84, 3.84;stroke-dashoffset:0"
       d="m 72.8332,353.5 434.0838,0" /><path
       inkscape:connector-curvature="0"
       id="path10864"
       style="fill:none;stroke:#4d4d4d;stroke-width:0.95999998;stroke-linecap:butt;stroke-linejoin:round;stroke-miterlimit:10;stroke-opacity:1;stroke-dasharray:3.84, 3.84;stroke-dashoffset:0"
       d="m 72.8332,387.583 434.0838,0" /><path
       inkscape:connector-curvature="0"
       id="path10868"
       style="fill:none;stroke:#4d4d4d;stroke-width:1;stroke-linecap:butt;stroke-linejoin:round;stroke-miterlimit:10;stroke-opacity:1;stroke-dasharray:none"
       d="m 72.8332,46.0832 434.0838,0" /><path
       inkscape:connector-curvature="0"
       id="path10870"
       style="fill:none;stroke:#4d4d4d;stroke-width:1;stroke-linecap:butt;stroke-linejoin:round;stroke-miterlimit:10;stroke-opacity:1;stroke-dasharray:none"
       d="m 72.8332,46.0832 0,341.4998" /><path
       inkscape:connector-curvature="0"
       id="path10872"
       style="fill:none;stroke:#4d4d4d;stroke-width:1;stroke-linecap:butt;stroke-linejoin:round;stroke-miterlimit:10;stroke-opacity:1;stroke-dasharray:none"
       d="m 134.833,46.0832 0,-8.6664" /><g
       id="g10874"
       transform="matrix(1.5625,0,0,1.5625,-75.650753,-16.271409)"
       style="fill:#000000"><text
         id="text10876"
         transform="matrix(1,0,0,-1,132.083,25.3332)"
         style="fill:#000000"><tspan
           id="tspan10878"
           y="0"
           x="0"
           style="font-size:10px;font-variant:normal;font-weight:normal;writing-mode:lr-tb;fill:#000000;fill-opacity:1;fill-rule:nonzero;stroke:none;font-family:Helvetica;-inkscape-font-specification:Helvetica">1</tspan></text>
</g><path
       inkscape:connector-curvature="0"
       id="path10880"
       style="fill:none;stroke:#4d4d4d;stroke-width:1;stroke-linecap:butt;stroke-linejoin:round;stroke-miterlimit:10;stroke-opacity:1;stroke-dasharray:none"
       d="m 196.833,46.0832 0,-8.6664" /><g
       id="g10882"
       transform="matrix(1.5625,0,0,1.5625,-110.66995,-16.271409)"
       style="fill:#000000"><text
         id="text10884"
         transform="matrix(1,0,0,-1,194.083,25.3332)"
         style="fill:#000000"><tspan
           id="tspan10886"
           y="0"
           x="0"
           style="font-size:10px;font-variant:normal;font-weight:normal;writing-mode:lr-tb;fill:#000000;fill-opacity:1;fill-rule:nonzero;stroke:none;font-family:Helvetica;-inkscape-font-specification:Helvetica">2</tspan></text>
</g><path
       inkscape:connector-curvature="0"
       id="path10888"
       style="fill:none;stroke:#4d4d4d;stroke-width:1;stroke-linecap:butt;stroke-linejoin:round;stroke-miterlimit:10;stroke-opacity:1;stroke-dasharray:none"
       d="m 258.833,46.0832 0,-8.6664" /><g
       id="g10890"
       transform="matrix(1.5625,0,0,1.5625,-145.60125,-16.235704)"
       style="fill:#000000"><text
         id="text10892"
         transform="matrix(1,0,0,-1,256.083,25.3332)"
         style="fill:#000000"><tspan
           id="tspan10894"
           y="0"
           x="0"
           style="font-size:10px;font-variant:normal;font-weight:normal;writing-mode:lr-tb;fill:#000000;fill-opacity:1;fill-rule:nonzero;stroke:none;font-family:Helvetica;-inkscape-font-specification:Helvetica">3</tspan></text>
</g><path
       inkscape:connector-curvature="0"
       id="path10896"
       style="fill:none;stroke:#4d4d4d;stroke-width:1;stroke-linecap:butt;stroke-linejoin:round;stroke-miterlimit:10;stroke-opacity:1;stroke-dasharray:none"
       d="m 320.833,46.0832 0,-8.6664" /><g
       id="g10898"
       transform="matrix(1.5625,0,0,1.5625,-180.38562,-16.26317)"
       style="fill:#000000"><text
         id="text10900"
         transform="matrix(1,0,0,-1,318.083,25.3332)"
         style="fill:#000000"><tspan
           id="tspan10902"
           y="0"
           x="0"
           style="font-size:10px;font-variant:normal;font-weight:normal;writing-mode:lr-tb;fill:#000000;fill-opacity:1;fill-rule:nonzero;stroke:none;font-family:Helvetica;-inkscape-font-specification:Helvetica">4</tspan></text>
</g><path
       inkscape:connector-curvature="0"
       id="path10904"
       style="fill:none;stroke:#4d4d4d;stroke-width:1;stroke-linecap:butt;stroke-linejoin:round;stroke-miterlimit:10;stroke-opacity:1;stroke-dasharray:none"
       d="m 382.833,46.0832 0,-8.6664" /><g
       id="g10906"
       transform="matrix(1.5625,0,0,1.5625,-215.36499,-16.201372)"
       style="fill:#000000"><text
         id="text10908"
         transform="matrix(1,0,0,-1,380.083,25.3332)"
         style="fill:#000000"><tspan
           id="tspan10910"
           y="0"
           x="0"
           style="font-size:10px;font-variant:normal;font-weight:normal;writing-mode:lr-tb;fill:#000000;fill-opacity:1;fill-rule:nonzero;stroke:none;font-family:Helvetica;-inkscape-font-specification:Helvetica">5</tspan></text>
</g><path
       inkscape:connector-curvature="0"
       id="path10912"
       style="fill:none;stroke:#4d4d4d;stroke-width:1;stroke-linecap:butt;stroke-linejoin:round;stroke-miterlimit:10;stroke-opacity:1;stroke-dasharray:none"
       d="m 444.833,46.0832 0,-8.6664" /><g
       id="g10914"
       transform="matrix(1.5625,0,0,1.5625,-250.21252,-16.237077)"
       style="fill:#000000"><text
         id="text10916"
         transform="matrix(1,0,0,-1,442.083,25.3332)"
         style="fill:#000000"><tspan
           id="tspan10918"
           y="0"
           x="0"
           style="font-size:10px;font-variant:normal;font-weight:normal;writing-mode:lr-tb;fill:#000000;fill-opacity:1;fill-rule:nonzero;stroke:none;font-family:Helvetica;-inkscape-font-specification:Helvetica">6</tspan></text>
</g><path
       inkscape:connector-curvature="0"
       id="path10920"
       style="fill:none;stroke:#4d4d4d;stroke-width:1;stroke-linecap:butt;stroke-linejoin:round;stroke-miterlimit:10;stroke-opacity:1;stroke-dasharray:none"
       d="m 72.8332,46.0832 -8.75,0" /><g
       id="g10922"
       transform="matrix(1.5625,0,0,1.5625,-32.905701,-25.846602)"
       style="fill:#000000"><text
         id="text10924"
         transform="matrix(1,0,0,-1,55.75,42.4168)"
         style="fill:#000000"><tspan
           id="tspan10926"
           y="0"
           x="0"
           style="font-size:10px;font-variant:normal;font-weight:normal;writing-mode:lr-tb;fill:#000000;fill-opacity:1;fill-rule:nonzero;stroke:none;font-family:Helvetica;-inkscape-font-specification:Helvetica">0</tspan></text>
</g><path
       inkscape:connector-curvature="0"
       id="path10928"
       style="fill:none;stroke:#4d4d4d;stroke-width:1;stroke-linecap:butt;stroke-linejoin:round;stroke-miterlimit:10;stroke-opacity:1;stroke-dasharray:none"
       d="m 72.8332,80.25 -8.75,0" /><g
       id="g10930"
       transform="matrix(1.5625,0,0,1.5625,-32.927673,-45.029497)"
       style="fill:#000000"><text
         id="text10932"
         transform="matrix(1,0,0,-1,55.75,76.5832)"
         style="fill:#000000"><tspan
           id="tspan10934"
           y="0"
           x="0"
           style="font-size:10px;font-variant:normal;font-weight:normal;writing-mode:lr-tb;fill:#000000;fill-opacity:1;fill-rule:nonzero;stroke:none;font-family:Helvetica;-inkscape-font-specification:Helvetica">5</tspan></text>
</g><path
       inkscape:connector-curvature="0"
       id="path10936"
       style="fill:none;stroke:#4d4d4d;stroke-width:1;stroke-linecap:butt;stroke-linejoin:round;stroke-miterlimit:10;stroke-opacity:1;stroke-dasharray:none"
       d="m 72.8332,114.417 -8.75,0" /><g
       id="g10938"
       transform="matrix(1.5625,0,0,1.5625,-31.518414,-64.284027)"
       style="fill:#000000"><text
         id="text10940"
         transform="matrix(1,0,0,-1,50.1668,110.75)"
         style="fill:#000000"><tspan
           id="tspan10942"
           sodipodi:role="line"
           y="0"
           x="0 5.5599999"
           style="font-size:10px;font-variant:normal;font-weight:normal;writing-mode:lr-tb;fill:#000000;fill-opacity:1;fill-rule:nonzero;stroke:none;font-family:Helvetica;-inkscape-font-specification:Helvetica">10</tspan></text>
</g><path
       inkscape:connector-curvature="0"
       id="path10944"
       style="fill:none;stroke:#4d4d4d;stroke-width:1;stroke-linecap:butt;stroke-linejoin:round;stroke-miterlimit:10;stroke-opacity:1;stroke-dasharray:none"
       d="m 72.8332,148.583 -8.75,0" /><g
       id="g10946"
       transform="matrix(1.5625,0,0,1.5625,-31.540387,-83.502965)"
       style="fill:#000000"><text
         id="text10948"
         transform="matrix(1,0,0,-1,50.1668,144.917)"
         style="fill:#000000"><tspan
           id="tspan10950"
           sodipodi:role="line"
           y="0"
           x="0 5.5599999"
           style="font-size:10px;font-variant:normal;font-weight:normal;writing-mode:lr-tb;fill:#000000;fill-opacity:1;fill-rule:nonzero;stroke:none;font-family:Helvetica;-inkscape-font-specification:Helvetica">15</tspan></text>
</g><path
       inkscape:connector-curvature="0"
       id="path10952"
       style="fill:none;stroke:#4d4d4d;stroke-width:1;stroke-linecap:butt;stroke-linejoin:round;stroke-miterlimit:10;stroke-opacity:1;stroke-dasharray:none"
       d="m 72.8332,182.75 -8.75,0" /><g
       id="g10954"
       transform="matrix(1.5625,0,0,1.5625,-31.294568,-102.72134)"
       style="fill:#000000"><text
         id="text10956"
         transform="matrix(1,0,0,-1,50.1668,179.083)"
         style="fill:#000000"><tspan
           id="tspan10958"
           sodipodi:role="line"
           y="0"
           x="0 5.5599999"
           style="font-size:10px;font-variant:normal;font-weight:normal;writing-mode:lr-tb;fill:#000000;fill-opacity:1;fill-rule:nonzero;stroke:none;font-family:Helvetica;-inkscape-font-specification:Helvetica">20</tspan></text>
</g><path
       inkscape:connector-curvature="0"
       id="path10960"
       style="fill:none;stroke:#4d4d4d;stroke-width:1;stroke-linecap:butt;stroke-linejoin:round;stroke-miterlimit:10;stroke-opacity:1;stroke-dasharray:none"
       d="m 72.8332,216.833 -8.75,0" /><g
       id="g10962"
       transform="matrix(1.5625,0,0,1.5625,-31.316541,-121.89359)"
       style="fill:#000000"><text
         id="text10964"
         transform="matrix(1,0,0,-1,50.1668,213.167)"
         style="fill:#000000"><tspan
           id="tspan10966"
           sodipodi:role="line"
           y="0"
           x="0 5.5599999"
           style="font-size:10px;font-variant:normal;font-weight:normal;writing-mode:lr-tb;fill:#000000;fill-opacity:1;fill-rule:nonzero;stroke:none;font-family:Helvetica;-inkscape-font-specification:Helvetica">25</tspan></text>
</g><path
       inkscape:connector-curvature="0"
       id="path10968"
       style="fill:none;stroke:#4d4d4d;stroke-width:1;stroke-linecap:butt;stroke-linejoin:round;stroke-miterlimit:10;stroke-opacity:1;stroke-dasharray:none"
       d="m 72.8332,251 -8.75,0" /><g
       id="g10970"
       transform="matrix(1.5625,0,0,1.5625,-31.330274,-141.11059)"
       style="fill:#000000"><text
         id="text10972"
         transform="matrix(1,0,0,-1,50.1668,247.333)"
         style="fill:#000000"><tspan
           id="tspan10974"
           sodipodi:role="line"
           y="0"
           x="0 5.5599999"
           style="font-size:10px;font-variant:normal;font-weight:normal;writing-mode:lr-tb;fill:#000000;fill-opacity:1;fill-rule:nonzero;stroke:none;font-family:Helvetica;-inkscape-font-specification:Helvetica">30</tspan></text>
</g><path
       inkscape:connector-curvature="0"
       id="path10976"
       style="fill:none;stroke:#4d4d4d;stroke-width:1;stroke-linecap:butt;stroke-linejoin:round;stroke-miterlimit:10;stroke-opacity:1;stroke-dasharray:none"
       d="m 72.8332,285.167 -8.75,0" /><g
       id="g10978"
       transform="matrix(1.5625,0,0,1.5625,-31.352247,-160.32953)"
       style="fill:#000000"><text
         id="text10980"
         transform="matrix(1,0,0,-1,50.1668,281.5)"
         style="fill:#000000"><tspan
           id="tspan10982"
           sodipodi:role="line"
           y="0"
           x="0 5.5599999"
           style="font-size:10px;font-variant:normal;font-weight:normal;writing-mode:lr-tb;fill:#000000;fill-opacity:1;fill-rule:nonzero;stroke:none;font-family:Helvetica;-inkscape-font-specification:Helvetica">35</tspan></text>
</g><path
       inkscape:connector-curvature="0"
       id="path10984"
       style="fill:none;stroke:#4d4d4d;stroke-width:1;stroke-linecap:butt;stroke-linejoin:round;stroke-miterlimit:10;stroke-opacity:1;stroke-dasharray:none"
       d="m 72.8332,319.333 -8.75,0" /><g
       id="g10986"
       transform="matrix(1.5625,0,0,1.5625,-31.247876,-179.54984)"
       style="fill:#000000"><text
         id="text10988"
         transform="matrix(1,0,0,-1,50.1668,315.667)"
         style="fill:#000000"><tspan
           id="tspan10990"
           sodipodi:role="line"
           y="0"
           x="0 5.5599999"
           style="font-size:10px;font-variant:normal;font-weight:normal;writing-mode:lr-tb;fill:#000000;fill-opacity:1;fill-rule:nonzero;stroke:none;font-family:Helvetica;-inkscape-font-specification:Helvetica">40</tspan></text>
</g><path
       inkscape:connector-curvature="0"
       id="path10992"
       style="fill:none;stroke:#4d4d4d;stroke-width:1;stroke-linecap:butt;stroke-linejoin:round;stroke-miterlimit:10;stroke-opacity:1;stroke-dasharray:none"
       d="m 72.8332,353.5 -8.75,0" /><g
       id="g10994"
       transform="matrix(1.5625,0,0,1.5625,-31.269849,-198.75998)"
       style="fill:#000000"><text
         id="text10996"
         transform="matrix(1,0,0,-1,50.1668,349.833)"
         style="fill:#000000"><tspan
           id="tspan10998"
           sodipodi:role="line"
           y="0"
           x="0 5.5599999"
           style="font-size:10px;font-variant:normal;font-weight:normal;writing-mode:lr-tb;fill:#000000;fill-opacity:1;fill-rule:nonzero;stroke:none;font-family:Helvetica;-inkscape-font-specification:Helvetica">45</tspan></text>
</g><path
       inkscape:connector-curvature="0"
       id="path11000"
       style="fill:none;stroke:#4d4d4d;stroke-width:1;stroke-linecap:butt;stroke-linejoin:round;stroke-miterlimit:10;stroke-opacity:1;stroke-dasharray:none"
       d="m 72.8332,387.583 -8.75,0" /><g
       id="g11002"
       transform="matrix(1.5625,0,0,1.5625,-31.328901,-217.94046)"
       style="fill:#000000"><text
         id="text11004"
         transform="matrix(1,0,0,-1,50.1668,383.917)"
         style="fill:#000000"><tspan
           id="tspan11006"
           sodipodi:role="line"
           y="0"
           x="0 5.5599999"
           style="font-size:10px;font-variant:normal;font-weight:normal;writing-mode:lr-tb;fill:#000000;fill-opacity:1;fill-rule:nonzero;stroke:none;font-family:Helvetica;-inkscape-font-specification:Helvetica">50</tspan></text>
</g><g
       id="g11008"
       transform="scale(0.1,0.1)"><g
         clip-path="url(#clipPath11012)"
         id="g11010"><path
           inkscape:connector-curvature="0"
           id="path11016"
           style="fill:#ff0000;fill-opacity:1;fill-rule:evenodd;stroke:none"
           d="m 1100,460.832 495.832,0 0,1134.17 -495.832,0 0,-1134.17 z" /><path
           inkscape:connector-curvature="0"
           id="path11018"
           style="fill:none;stroke:#333333;stroke-width:10.19999981;stroke-linecap:butt;stroke-linejoin:round;stroke-miterlimit:10;stroke-opacity:1;stroke-dasharray:none"
           d="m 1100,460.832 0,1134.168 495.83,0 0,-1134.168 -495.83,0" /><path
           inkscape:connector-curvature="0"
           id="path11020"
           style="fill:#ff0000;fill-opacity:1;fill-rule:evenodd;stroke:none"
           d="m 1720,460.832 495.832,0 0,1180 -495.832,0 0,-1180 z" /><path
           inkscape:connector-curvature="0"
           id="path11022"
           style="fill:none;stroke:#333333;stroke-width:10.19999981;stroke-linecap:butt;stroke-linejoin:round;stroke-miterlimit:10;stroke-opacity:1;stroke-dasharray:none"
           d="m 1720,460.832 0,1179.998 495.83,0 0,-1179.998 -495.83,0" /><path
           inkscape:connector-curvature="0"
           id="path11024"
           style="fill:#ff0000;fill-opacity:1;fill-rule:evenodd;stroke:none"
           d="m 2340,460.832 496.668,0 0,1141.67 -496.668,0 0,-1141.67 z" /><path
           inkscape:connector-curvature="0"
           id="path11026"
           style="fill:none;stroke:#333333;stroke-width:10.19999981;stroke-linecap:butt;stroke-linejoin:round;stroke-miterlimit:10;stroke-opacity:1;stroke-dasharray:none"
           d="m 2340,460.832 0,1141.668 496.67,0 0,-1141.668 -496.67,0" /><path
           inkscape:connector-curvature="0"
           id="path11028"
           style="fill:#ff0000;fill-opacity:1;fill-rule:evenodd;stroke:none"
           d="m 2960,460.832 496.668,0 0,1129.17 -496.668,0 0,-1129.17 z" /><path
           inkscape:connector-curvature="0"
           id="path11030"
           style="fill:none;stroke:#333333;stroke-width:10.19999981;stroke-linecap:butt;stroke-linejoin:round;stroke-miterlimit:10;stroke-opacity:1;stroke-dasharray:none"
           d="m 2960,460.832 0,1129.168 496.67,0 0,-1129.168 -496.67,0" /><path
           inkscape:connector-curvature="0"
           id="path11032"
           style="fill:#ff0000;fill-opacity:1;fill-rule:evenodd;stroke:none"
           d="m 3580.83,460.832 495.836,0 0,1124.17 -495.836,0 0,-1124.17 z" /><path
           inkscape:connector-curvature="0"
           id="path11034"
           style="fill:none;stroke:#333333;stroke-width:10.19999981;stroke-linecap:butt;stroke-linejoin:round;stroke-miterlimit:10;stroke-opacity:1;stroke-dasharray:none"
           d="m 3580.83,460.832 0,1124.168 495.84,0 0,-1124.168 -495.84,0" /><path
           inkscape:connector-curvature="0"
           id="path11036"
           style="fill:#ff0000;fill-opacity:1;fill-rule:evenodd;stroke:none"
           d="m 4200.83,460.832 495.836,0 0,1123.34 -495.836,0 0,-1123.34 z" /><path
           inkscape:connector-curvature="0"
           id="path11038"
           style="fill:none;stroke:#333333;stroke-width:10.19999981;stroke-linecap:butt;stroke-linejoin:round;stroke-miterlimit:10;stroke-opacity:1;stroke-dasharray:none"
           d="m 4200.83,460.832 0,1123.338 495.84,0 0,-1123.338 -495.84,0" /><path
           inkscape:connector-curvature="0"
           id="path11040"
           style="fill:none;stroke:#000000;stroke-width:5;stroke-linecap:butt;stroke-linejoin:round;stroke-miterlimit:10;stroke-opacity:1;stroke-dasharray:none"
           d="m 728.332,460.832 4340.838,0" /><path
           inkscape:connector-curvature="0"
           id="path11042"
           style="fill:#00ffff;fill-opacity:1;fill-rule:evenodd;stroke:none"
           d="m 1100,1595 495.832,0 0,4.168 -495.832,0 0,-4.168 z" /><path
           inkscape:connector-curvature="0"
           id="path11044"
           style="fill:none;stroke:#333333;stroke-width:10.19999981;stroke-linecap:butt;stroke-linejoin:round;stroke-miterlimit:10;stroke-opacity:1;stroke-dasharray:none"
           d="m 1100,1595 0,4.17 495.83,0 0,-4.17 -495.83,0" /><path
           inkscape:connector-curvature="0"
           id="path11046"
           style="fill:#00ffff;fill-opacity:1;fill-rule:evenodd;stroke:none"
           d="m 1720,1640.83 495.832,0 0,7.5 -495.832,0 0,-7.5 z" /><path
           inkscape:connector-curvature="0"
           id="path11048"
           style="fill:none;stroke:#333333;stroke-width:10.19999981;stroke-linecap:butt;stroke-linejoin:round;stroke-miterlimit:10;stroke-opacity:1;stroke-dasharray:none"
           d="m 1720,1640.83 0,7.5 495.83,0 0,-7.5 -495.83,0" /><path
           inkscape:connector-curvature="0"
           id="path11050"
           style="fill:#00ffff;fill-opacity:1;fill-rule:evenodd;stroke:none"
           d="m 2340,1602.5 496.668,0 0,10 -496.668,0 0,-10 z" /><path
           inkscape:connector-curvature="0"
           id="path11052"
           style="fill:none;stroke:#333333;stroke-width:10.19999981;stroke-linecap:butt;stroke-linejoin:round;stroke-miterlimit:10;stroke-opacity:1;stroke-dasharray:none"
           d="m 2340,1602.5 0,10 496.67,0 0,-10 -496.67,0" /><path
           inkscape:connector-curvature="0"
           id="path11054"
           style="fill:#00ffff;fill-opacity:1;fill-rule:evenodd;stroke:none"
           d="m 2960,1590 496.668,0 0,9.168 -496.668,0 0,-9.168 z" /><path
           inkscape:connector-curvature="0"
           id="path11056"
           style="fill:none;stroke:#333333;stroke-width:10.19999981;stroke-linecap:butt;stroke-linejoin:round;stroke-miterlimit:10;stroke-opacity:1;stroke-dasharray:none"
           d="m 2960,1590 0,9.17 496.67,0 0,-9.17 -496.67,0" /><path
           inkscape:connector-curvature="0"
           id="path11058"
           style="fill:#00ffff;fill-opacity:1;fill-rule:evenodd;stroke:none"
           d="m 3580.83,1585 495.836,0 0,9.168 -495.836,0 0,-9.168 z" /><path
           inkscape:connector-curvature="0"
           id="path11060"
           style="fill:none;stroke:#333333;stroke-width:10.19999981;stroke-linecap:butt;stroke-linejoin:round;stroke-miterlimit:10;stroke-opacity:1;stroke-dasharray:none"
           d="m 3580.83,1585 0,9.17 495.84,0 0,-9.17 -495.84,0" /><path
           inkscape:connector-curvature="0"
           id="path11062"
           style="fill:#00ffff;fill-opacity:1;fill-rule:evenodd;stroke:none"
           d="m 4200.83,1584.17 495.836,0 0,10.832 -495.836,0 0,-10.832 z" /><path
           inkscape:connector-curvature="0"
           id="path11064"
           style="fill:none;stroke:#333333;stroke-width:10.19999981;stroke-linecap:butt;stroke-linejoin:round;stroke-miterlimit:10;stroke-opacity:1;stroke-dasharray:none"
           d="m 4200.83,1584.17 0,10.83 495.84,0 0,-10.83 -495.84,0" /><path
           inkscape:connector-curvature="0"
           id="path11066"
           style="fill:#8000ff;fill-opacity:1;fill-rule:evenodd;stroke:none"
           d="m 1100,1599.17 495.832,0 0,35 -495.832,0 0,-35 z" /><path
           inkscape:connector-curvature="0"
           id="path11068"
           style="fill:none;stroke:#333333;stroke-width:10.19999981;stroke-linecap:butt;stroke-linejoin:round;stroke-miterlimit:10;stroke-opacity:1;stroke-dasharray:none"
           d="m 1100,1599.17 0,35 495.83,0 0,-35 -495.83,0" /><path
           inkscape:connector-curvature="0"
           id="path11070"
           style="fill:#8000ff;fill-opacity:1;fill-rule:evenodd;stroke:none"
           d="m 1720,1648.33 495.832,0 0,15.8359 -495.832,0 0,-15.8359 z" /><path
           inkscape:connector-curvature="0"
           id="path11072"
           style="fill:none;stroke:#333333;stroke-width:10.19999981;stroke-linecap:butt;stroke-linejoin:round;stroke-miterlimit:10;stroke-opacity:1;stroke-dasharray:none"
           d="m 1720,1648.33 0,15.84 495.83,0 0,-15.84 -495.83,0" /><path
           inkscape:connector-curvature="0"
           id="path11074"
           style="fill:#8000ff;fill-opacity:1;fill-rule:evenodd;stroke:none"
           d="m 2340,1612.5 496.668,0 0,368.332 -496.668,0 0,-368.332 z" /><path
           inkscape:connector-curvature="0"
           id="path11076"
           style="fill:none;stroke:#333333;stroke-width:10.19999981;stroke-linecap:butt;stroke-linejoin:round;stroke-miterlimit:10;stroke-opacity:1;stroke-dasharray:none"
           d="m 2340,1612.5 0,368.33 496.67,0 0,-368.33 -496.67,0" /><path
           inkscape:connector-curvature="0"
           id="path11078"
           style="fill:#8000ff;fill-opacity:1;fill-rule:evenodd;stroke:none"
           d="m 2960,1599.17 496.668,0 0,386.664 -496.668,0 0,-386.664 z" /><path
           inkscape:connector-curvature="0"
           id="path11080"
           style="fill:none;stroke:#333333;stroke-width:10.19999981;stroke-linecap:butt;stroke-linejoin:round;stroke-miterlimit:10;stroke-opacity:1;stroke-dasharray:none"
           d="m 2960,1599.17 0,386.66 496.67,0 0,-386.66 -496.67,0" /><path
           inkscape:connector-curvature="0"
           id="path11082"
           style="fill:#8000ff;fill-opacity:1;fill-rule:evenodd;stroke:none"
           d="m 3580.83,1594.17 495.836,0 0,384.164 -495.836,0 0,-384.164 z" /><path
           inkscape:connector-curvature="0"
           id="path11084"
           style="fill:none;stroke:#333333;stroke-width:10.19999981;stroke-linecap:butt;stroke-linejoin:round;stroke-miterlimit:10;stroke-opacity:1;stroke-dasharray:none"
           d="m 3580.83,1594.17 0,384.16 495.84,0 0,-384.16 -495.84,0" /><path
           inkscape:connector-curvature="0"
           id="path11086"
           style="fill:#8000ff;fill-opacity:1;fill-rule:evenodd;stroke:none"
           d="m 4200.83,1595 495.836,0 0,388.332 -495.836,0 0,-388.332 z" /><path
           inkscape:connector-curvature="0"
           id="path11088"
           style="fill:none;stroke:#333333;stroke-width:10.19999981;stroke-linecap:butt;stroke-linejoin:round;stroke-miterlimit:10;stroke-opacity:1;stroke-dasharray:none"
           d="m 4200.83,1595 0,388.33 495.84,0 0,-388.33 -495.84,0" /></g></g><g
       id="g11090"
       transform="matrix(1.5625,0,0,1.5625,-162.85063,-224.9003)"><text
         id="text11092"
         transform="matrix(1,0,0,-1,189.583,395.5)"><tspan
           id="tspan11094"
           sodipodi:role="line"
           y="0"
           x="0 6.1100001 11.67 17.23 19.450001 22.23 25.01 31.120001 36.68 38.900002 44.459999 47.790001 53.349998 58.91 61.689999 64.470001 71.139999 73.360001 78.919998 84.480003 87.809998 90.029999 92.809998 98.370003 106.7 109.48 117.26 122.26 127.82 131.14999 136.71001 142.27 147.83 153.39 156.17 161.73 164.50999 167.28999 170.07001 175.91"
           style="font-size:10px;font-variant:normal;font-weight:normal;writing-mode:lr-tb;fill:#000000;fill-opacity:1;fill-rule:nonzero;stroke:none;font-family:Helvetica;-inkscape-font-specification:Helvetica">Fault Tolerant Algorithm Overhead at f=2</tspan></text>
<text
         id="text11096"
         transform="matrix(1,0,0,-1,368.583,400.5)"><tspan
           id="tspan11098"
           sodipodi:role="line"
           y="0"
           x="0 4.6719999"
           style="font-size:8px;font-variant:normal;font-weight:normal;writing-mode:lr-tb;fill:#000000;fill-opacity:1;fill-rule:nonzero;stroke:none;font-family:Helvetica;-inkscape-font-specification:Helvetica">−6</tspan></text>
<text
         id="text11100"
         transform="matrix(1,0,0,-1,377.66659,395.5)"><tspan
           id="tspan11102"
           sodipodi:role="line"
           y="0"
           x="0 2.5999999 9.2700005"
           style="font-size:10px;font-variant:normal;font-weight:normal;writing-mode:lr-tb;fill:#000000;fill-opacity:1;fill-rule:nonzero;stroke:none;font-family:Helvetica;-inkscape-font-specification:Helvetica">|E|</tspan></text>
</g><text
       style="font-size:18.75px;fill:#000000"
       transform="scale(1,-1)"
       id="text11106"
       x="259.51184"
       y="-6.904305"><tspan
         style="font-size:15.625px;font-variant:normal;font-weight:normal;writing-mode:lr-tb;fill:#000000;fill-opacity:1;fill-rule:nonzero;stroke:none;font-family:Helvetica;-inkscape-font-specification:Helvetica"
         x="259.51184 263.85559 268.19934 276.88684 282.08997 290.77747 295.12122 298.58997 307.27747"
         y="-6.904305"
         sodipodi:role="line"
         id="tspan11108">Iteration</tspan></text>
<text
       style="font-size:18.75px;fill:#000000"
       transform="matrix(0,1,1,0,0,0)"
       id="text11110"
       x="166.81824"
       y="32.112076"><tspan
         style="font-size:15.625px;font-variant:normal;font-weight:normal;writing-mode:lr-tb;fill:#000000;fill-opacity:1;fill-rule:nonzero;stroke:none;font-family:Helvetica;-inkscape-font-specification:Helvetica"
         x="166.81824 178.09949 186.78699 191.99011 205.00574 213.69324 217.162 220.63074 228.44324 237.13075 245.81825 250.162 259.70889 263.17764 276.19327 284.88077 289.22452 294.42764 308.31827"
         y="32.112076"
         sodipodi:role="line"
         id="tspan11112">Normalized Time (%)</tspan></text>
<g
       id="g11114" /><g
       id="g11924"
       transform="matrix(1.25,0,0,1.25,-147.09928,-105.56442)"><path
         d="m 506.917,353.5 0,0"
         style="fill:none;stroke:#4d4d4d;stroke-width:0.66666698;stroke-linecap:butt;stroke-linejoin:round;stroke-miterlimit:10;stroke-opacity:1;stroke-dasharray:0.5, 4;stroke-dashoffset:0"
         id="path10862"
         inkscape:connector-curvature="0" /><path
         d="m 506.917,387.583 0,0"
         style="fill:none;stroke:#4d4d4d;stroke-width:0.66666698;stroke-linecap:butt;stroke-linejoin:round;stroke-miterlimit:10;stroke-opacity:1;stroke-dasharray:0.5, 4;stroke-dashoffset:0"
         id="path10866"
         inkscape:connector-curvature="0" /><path
         d="m 235.583,342.583 266.417,0 0,40 -266.417,0 0,-40 z"
         style="fill:#ffffff;fill-opacity:1;fill-rule:evenodd;stroke:none"
         id="path11116"
         inkscape:connector-curvature="0" /><path
         d="m 235.583,342.583 0,40 266.417,0 0,-40 -266.417,0"
         style="fill:none;stroke:#ffffff;stroke-width:0.5;stroke-linecap:butt;stroke-linejoin:round;stroke-miterlimit:10;stroke-opacity:1;stroke-dasharray:none"
         id="path11118"
         inkscape:connector-curvature="0" /><path
         d="m 235.583,342.583 266.417,0"
         style="fill:none;stroke:#000000;stroke-width:0.5;stroke-linecap:butt;stroke-linejoin:round;stroke-miterlimit:10;stroke-opacity:1;stroke-dasharray:none"
         id="path11120"
         inkscape:connector-curvature="0" /><path
         d="m 235.583,382.583 266.417,0"
         style="fill:none;stroke:#000000;stroke-width:0.5;stroke-linecap:butt;stroke-linejoin:round;stroke-miterlimit:10;stroke-opacity:1;stroke-dasharray:none"
         id="path11122"
         inkscape:connector-curvature="0" /><path
         d="m 235.583,342.583 0,40"
         style="fill:none;stroke:#000000;stroke-width:0.5;stroke-linecap:butt;stroke-linejoin:round;stroke-miterlimit:10;stroke-opacity:1;stroke-dasharray:none"
         id="path11124"
         inkscape:connector-curvature="0" /><path
         d="m 502,342.583 0,40"
         style="fill:none;stroke:#000000;stroke-width:0.5;stroke-linecap:butt;stroke-linejoin:round;stroke-miterlimit:10;stroke-opacity:1;stroke-dasharray:none"
         id="path11126"
         inkscape:connector-curvature="0" /><path
         d="m 235.583,342.583 266.417,0"
         style="fill:none;stroke:#000000;stroke-width:0.5;stroke-linecap:butt;stroke-linejoin:round;stroke-miterlimit:10;stroke-opacity:1;stroke-dasharray:none"
         id="path11128"
         inkscape:connector-curvature="0" /><path
         d="m 235.583,342.583 0,40"
         style="fill:none;stroke:#000000;stroke-width:0.5;stroke-linecap:butt;stroke-linejoin:round;stroke-miterlimit:10;stroke-opacity:1;stroke-dasharray:none"
         id="path11130"
         inkscape:connector-curvature="0" /><path
         d="m 235.583,342.583 266.417,0"
         style="fill:none;stroke:#000000;stroke-width:0.5;stroke-linecap:butt;stroke-linejoin:round;stroke-miterlimit:10;stroke-opacity:1;stroke-dasharray:none"
         id="path11132"
         inkscape:connector-curvature="0" /><path
         d="m 235.583,382.583 266.417,0"
         style="fill:none;stroke:#000000;stroke-width:0.5;stroke-linecap:butt;stroke-linejoin:round;stroke-miterlimit:10;stroke-opacity:1;stroke-dasharray:none"
         id="path11134"
         inkscape:connector-curvature="0" /><path
         d="m 235.583,342.583 0,40"
         style="fill:none;stroke:#000000;stroke-width:0.5;stroke-linecap:butt;stroke-linejoin:round;stroke-miterlimit:10;stroke-opacity:1;stroke-dasharray:none"
         id="path11136"
         inkscape:connector-curvature="0" /><path
         d="m 502,342.583 0,40"
         style="fill:none;stroke:#000000;stroke-width:0.5;stroke-linecap:butt;stroke-linejoin:round;stroke-miterlimit:10;stroke-opacity:1;stroke-dasharray:none"
         id="path11138"
         inkscape:connector-curvature="0" /><g
         id="g11140"><text
           transform="matrix(1,0,0,-1,273,371.417)"
           id="text11142"><tspan
             style="font-size:10px;font-variant:normal;font-weight:normal;writing-mode:lr-tb;fill:#000000;fill-opacity:1;fill-rule:nonzero;stroke:none;font-family:Helvetica;-inkscape-font-specification:Helvetica"
             x="0 6.6700001 12.23 17.23 22.790001 25.01 27.23 32.790001"
             y="0"
             sodipodi:role="line"
             id="tspan11144">Baseline</tspan></text>
</g><g
         transform="scale(0.1,0.1)"
         id="g11146"><g
           id="g11148"
           clip-path="url(#clipPath11150)"><path
             d="m 2413.33,3704.17 287.5,0 0,90.832 -287.5,0 0,-90.832 z"
             style="fill:#ff0000;fill-opacity:1;fill-rule:evenodd;stroke:none"
             id="path11154"
             inkscape:connector-curvature="0" /><path
             d="m 2413.33,3704.17 0,90.83 287.5,0 0,-90.83 -287.5,0 0,0"
             style="fill:none;stroke:#333333;stroke-width:10.19999981;stroke-linecap:butt;stroke-linejoin:round;stroke-miterlimit:10;stroke-opacity:1;stroke-dasharray:none"
             id="path11156"
             inkscape:connector-curvature="0" /></g></g><g
         id="g11158"><text
           transform="matrix(1,0,0,-1,273,359)"
           id="text11160"><tspan
             style="font-size:10px;font-variant:normal;font-weight:normal;writing-mode:lr-tb;fill:#000000;fill-opacity:1;fill-rule:nonzero;stroke:none;font-family:Helvetica;-inkscape-font-specification:Helvetica"
             x="0 6.6700001 12.23 17.23 19.450001 21.67 23.889999 29.450001 32.779999 37.779999 40.560001 47.779999 53.34 56.119999 61.68 64.459999 71.129997 73.910004 77.239998 82.800003 87.800003 90.580002 96.139999 99.470001 105.03 110.87 116.98 122.54 128.10001 130.32001 133.10001 135.88 143.10001 148.66 151.44 157 162 164.78 167 172.56 178.12 180.89999 188.67999 193.67999 199.24001 202.57001 208.13 213.69 219.25"
             y="0"
             sodipodi:role="line"
             id="tspan11162">Auxiliary Data Structure+Fault Detection Overhead</tspan></text>
</g><g
         transform="scale(0.1,0.1)"
         id="g11164"><g
           id="g11166"
           clip-path="url(#clipPath11168)"><path
             d="m 2413.33,3580.83 287.5,0 0,90.8359 -287.5,0 0,-90.8359 z"
             style="fill:#00ffff;fill-opacity:1;fill-rule:evenodd;stroke:none"
             id="path11172"
             inkscape:connector-curvature="0" /><path
             d="m 2413.33,3580.83 0,90.84 287.5,0 0,-90.84 -287.5,0 0,0"
             style="fill:none;stroke:#333333;stroke-width:10.19999981;stroke-linecap:butt;stroke-linejoin:round;stroke-miterlimit:10;stroke-opacity:1;stroke-dasharray:none"
             id="path11174"
             inkscape:connector-curvature="0" /></g></g><g
         id="g11176"><text
           transform="matrix(1,0,0,-1,273,346.667)"
           id="text11178"><tspan
             style="font-size:10px;font-variant:normal;font-weight:normal;writing-mode:lr-tb;fill:#000000;fill-opacity:1;fill-rule:nonzero;stroke:none;font-family:Helvetica;-inkscape-font-specification:Helvetica"
             x="0 6.1100001 11.67 17.23 19.450001 22.23 25.01 32.23 37.790001 41.119999 44.450001 50.009998 55.009998 57.790001 60.009998 65.57 71.129997 73.910004 81.690002 86.690002 92.25 95.580002 101.14 106.7 112.26"
             y="0"
             sodipodi:role="line"
             id="tspan11180">Fault Correction Overhead</tspan></text>
</g><g
         transform="scale(0.1,0.1)"
         id="g11182"><g
           id="g11184"
           clip-path="url(#clipPath11186)"><path
             d="m 2413.33,3457.5 287.5,0 0,90.832 -287.5,0 0,-90.832 z"
             style="fill:#8000ff;fill-opacity:1;fill-rule:evenodd;stroke:none"
             id="path11190"
             inkscape:connector-curvature="0" /><path
             d="m 2413.33,3457.5 0,90.83 287.5,0 0,-90.83 -287.5,0 0,0"
             style="fill:none;stroke:#333333;stroke-width:10.19999981;stroke-linecap:butt;stroke-linejoin:round;stroke-miterlimit:10;stroke-opacity:1;stroke-dasharray:none"
             id="path11192"
             inkscape:connector-curvature="0" /></g></g></g></g></svg>